<svg width="25" height="24" viewBox="0 0 25 24" fill="none" xmlns="http://www.w3.org/2000/svg">
<path fill-rule="evenodd" clip-rule="evenodd" d="M20.75 0.5C21.1642 0.5 21.5 0.835786 21.5 1.25V3H23C23.4142 3 23.75 3.33579 23.75 3.75C23.75 4.16421 23.4142 4.5 23 4.5H21.5V6.25C21.5 6.66421 21.1642 7 20.75 7C20.3358 7 20 6.66421 20 6.25V4.5H18.5C18.0858 4.5 17.75 4.16421 17.75 3.75C17.75 3.33579 18.0858 3 18.5 3H20V1.25C20 0.835786 20.3358 0.5 20.75 0.5Z" fill="#454545"/>
<path fill-rule="evenodd" clip-rule="evenodd" d="M16.9184 3H5.5C4.39543 3 3.5 3.89543 3.5 5V18.9135V19C3.5 19.3516 3.59071 19.6819 3.75 19.969C4.09119 20.5839 4.747 21 5.5 21L15.0381 21L15.0382 21L19.5 21C20.4665 21 21.2729 20.3144 21.4594 19.4031C21.486 19.2729 21.5 19.1381 21.5 19L21.5 15.7804L21.5 7.83159C21.2727 7.93958 21.0184 8 20.75 8C20.4816 8 20.2273 7.93958 20 7.83159V13.7693L17.5166 10.4398C16.8562 9.5544 15.6031 9.37199 14.7177 10.0324C14.5592 10.1506 14.4191 10.2917 14.302 10.451L11.2472 14.6066L10.544 13.6536C9.88816 12.7648 8.63598 12.576 7.74721 13.2319C7.58259 13.3533 7.43759 13.4993 7.31727 13.6648L5 16.851V5C5 4.72386 5.22386 4.5 5.5 4.5H16.9184C16.8104 4.27269 16.75 4.0184 16.75 3.75C16.75 3.4816 16.8104 3.22731 16.9184 3ZM18.5 4.5H19.5H20V5V6.25C20 6.66421 20.3358 7 20.75 7C21.1642 7 21.5 6.66421 21.5 6.25V5C21.5 3.89543 20.6046 3 19.5 3H18.5C18.0858 3 17.75 3.33579 17.75 3.75C17.75 4.16421 18.0858 4.5 18.5 4.5ZM5.08691 19.2818C5.09545 19.2943 5.10456 19.3064 5.11418 19.318C5.20588 19.4292 5.34465 19.5 5.49997 19.5H5.5L12.9941 19.5L9.33706 14.5442C9.17309 14.3221 8.86005 14.2748 8.63785 14.4388C8.5967 14.4692 8.56045 14.5057 8.53037 14.547L5.08691 19.2818ZM14.8582 19.5L19.5 19.5C19.7761 19.5 20 19.2762 20 19V19L20 16.2782L16.3143 11.3366C16.1492 11.1153 15.8359 11.0697 15.6145 11.2348C15.5749 11.2643 15.5399 11.2996 15.5106 11.3394L12.1799 15.8704L14.8582 19.5ZM9 10C8.17157 10 7.5 9.32843 7.5 8.5C7.5 7.67157 8.17157 7 9 7C9.82843 7 10.5 7.67157 10.5 8.5C10.5 9.32843 9.82843 10 9 10Z" fill="#454545"/>
</svg>
